# xmcd
#
# Track frame offsets:
#	150
#	18077
#	31043
#	41492
#	51598
#	61980
#	76069
#	88326
#	100754
#	112941
#	123819
#	134080
#	147397
#	159594
#	170115
#	180182
#
# Disc length: 2538 seconds
#
# Revision: 1
# Processed by: cddbd v1.5.1PL0 Copyright (c) Steve Scherf et al.
# Submitted via: audiograbber 1.83.01
#
DISCID=cd09e810
DTITLE=Various Artist - Country Guys
DYEAR=1900
DGENRE=
TTITLE0=Bill Anderson - A place in the country
TTITLE1=Bobbie Bare - I took a memory to lunch
TTITLE2=Conway Twitty - Born to sing the blues
TTITLE3=Dave Dudley - Oh lonesome me 
TTITLE4=Faron Young - Alone with you
TTITLE5=Frankie Lane - Don't fence me in
TTITLE6=Glenn Campbell - By the time I get to Phoenix
TTITLE7=Hank Locklin - Pinball Millionaire
TTITLE8=Hank Thompson - Humpty Dumpty Heart
TTITLE9=Jim Reeves - Have I told you lately that I love you
TTITLE10=Johnny Paycheck-A - 11
TTITLE11=Roy Clarke - Come live with me
TTITLE12=Tommy overstreet - you were a lady
TTITLE13=Waylon Jennings - Burning Memories
TTITLE14=Webb Pierce - I'm in the jailhouse now
TTITLE15=Willie Nelson - Broken Promises
EXTD=
EXTT0=
EXTT1=
EXTT2=
EXTT3=
EXTT4=
EXTT5=
EXTT6=
EXTT7=
EXTT8=
EXTT9=
EXTT10=
EXTT11=
EXTT12=
EXTT13=
EXTT14=
EXTT15=
PLAYORDER=
